<svg width="1440" height="373.8" xmlns="http://www.w3.org/2000/svg"><g><path d="M-39.90968026099924,-44.17504771418454L-60.80055729655376,24.286015610937227L44.571863066370405,-40.83444402661624Z" fill="#132b4d" stroke="#132b4d"/><path d="M-39.90968026099924,-44.17504771418454L44.571863066370405,-40.83444402661624L157.0341217143707,-77.53811101775749Z" fill="#132a4b" stroke="#132a4b"/><path d="M44.571863066370405,-40.83444402661624L-60.80055729655376,24.286015610937227L64.50539909077725,78.78330267982739Z" fill="#163152" stroke="#163152"/><path d="M44.571863066370405,-40.83444402661624L64.50539909077725,78.78330267982739L147.26284151446265,16.838455718513515Z" fill="#183253" stroke="#183253"/><path d="M44.571863066370405,-40.83444402661624L147.26284151446265,16.838455718513515L157.0341217143707,-77.53811101775749Z" fill="#162d4e" stroke="#162d4e"/><path d="M157.0341217143707,-77.53811101775749L147.26284151446265,16.838455718513515L195.83061091928795,-50.36060309156468Z" fill="#182e4f" stroke="#182e4f"/><path d="M157.0341217143707,-77.53811101775749L195.83061091928795,-50.36060309156468L345.1834655969218,-45.774321736504916Z" fill="#182e4f" stroke="#182e4f"/><path d="M157.0341217143707,-77.53811101775749L345.1834655969218,-45.774321736504916L507.0213483957035,-39.07146110712914Z" fill="#1c3151" stroke="#1c3151"/><path d="M157.0341217143707,-77.53811101775749L507.0213483957035,-39.07146110712914L826.5765062757167,-69.5151983413838Z" fill="#203454" stroke="#203454"/><path d="M195.83061091928795,-50.36060309156468L147.26284151446265,16.838455718513515L260.0008303444145,9.877017059392609Z" fill="#1a3253" stroke="#1a3253"/><path d="M195.83061091928795,-50.36060309156468L260.0008303444145,9.877017059392609L345.1834655969218,-45.774321736504916Z" fill="#1b3152" stroke="#1b3152"/><path d="M345.1834655969218,-45.774321736504916L260.0008303444145,9.877017059392609L321.30067986775737,34.348470010435726Z" fill="#1e3656" stroke="#1e3656"/><path d="M345.1834655969218,-45.774321736504916L321.30067986775737,34.348470010435726L406.56674727989736,50.79778827976528Z" fill="#203958" stroke="#203958"/><path d="M345.1834655969218,-45.774321736504916L406.56674727989736,50.79778827976528L429.4710610390623,-15.831776880420605Z" fill="#203857" stroke="#203857"/><path d="M345.1834655969218,-45.774321736504916L429.4710610390623,-15.831776880420605L507.0213483957035,-39.07146110712914Z" fill="#1f3555" stroke="#1f3555"/><path d="M429.4710610390623,-15.831776880420605L406.56674727989736,50.79778827976528L459.19700777385685,67.56408347451881Z" fill="#233d5c" stroke="#233d5c"/><path d="M429.4710610390623,-15.831776880420605L459.19700777385685,67.56408347451881L507.0213483957035,-39.07146110712914Z" fill="#223a5a" stroke="#223a5a"/><path d="M507.0213483957035,-39.07146110712914L459.19700777385685,67.56408347451881L578.4235439932313,-22.2332366953543Z" fill="#243b5a" stroke="#243b5a"/><path d="M507.0213483957035,-39.07146110712914L578.4235439932313,-22.2332366953543L640.5465551823042,-37.14189743096192Z" fill="#243959" stroke="#243959"/><path d="M507.0213483957035,-39.07146110712914L640.5465551823042,-37.14189743096192L826.5765062757167,-69.5151983413838Z" fill="#253958" stroke="#253958"/><path d="M578.4235439932313,-22.2332366953543L459.19700777385685,67.56408347451881L579.649172318507,112.39463676872835Z" fill="#274260" stroke="#274260"/><path d="M578.4235439932313,-22.2332366953543L579.649172318507,112.39463676872835L611.9358077410853,18.840258200124197Z" fill="#28415f" stroke="#28415f"/><path d="M578.4235439932313,-22.2332366953543L611.9358077410853,18.840258200124197L640.5465551823042,-37.14189743096192Z" fill="#263c5b" stroke="#263c5b"/><path d="M640.5465551823042,-37.14189743096192L611.9358077410853,18.840258200124197L659.2126441674017,63.89604362290617Z" fill="#28405e" stroke="#28405e"/><path d="M640.5465551823042,-37.14189743096192L659.2126441674017,63.89604362290617L767.9369721510254,62.66355200176905Z" fill="#2b4361" stroke="#2b4361"/><path d="M640.5465551823042,-37.14189743096192L767.9369721510254,62.66355200176905L782.2872975011352,-57.82682599128361Z" fill="#2a405e" stroke="#2a405e"/><path d="M640.5465551823042,-37.14189743096192L782.2872975011352,-57.82682599128361L826.5765062757167,-69.5151983413838Z" fill="#283a5a" stroke="#283a5a"/><path d="M782.2872975011352,-57.82682599128361L767.9369721510254,62.66355200176905L872.9424208670246,57.27173423684229Z" fill="#2d4563" stroke="#2d4563"/><path d="M782.2872975011352,-57.82682599128361L872.9424208670246,57.27173423684229L826.5765062757167,-69.5151983413838Z" fill="#2b405f" stroke="#2b405f"/><path d="M826.5765062757167,-69.5151983413838L872.9424208670246,57.27173423684229L943.9702575283317,-22.220925657453606Z" fill="#2e4361" stroke="#2e4361"/><path d="M826.5765062757167,-69.5151983413838L943.9702575283317,-22.220925657453606L1025.6161732761607,-58.12080112396646Z" fill="#2d405e" stroke="#2d405e"/><path d="M826.5765062757167,-69.5151983413838L1025.6161732761607,-58.12080112396646L1481.960920039465,-38.52623663076895Z" fill="#324462" stroke="#324462"/><path d="M943.9702575283317,-22.220925657453606L872.9424208670246,57.27173423684229L932.9882204913742,29.17946197116497Z" fill="#314865" stroke="#314865"/><path d="M943.9702575283317,-22.220925657453606L932.9882204913742,29.17946197116497L1005.44713636247,30.225473003715404Z" fill="#314865" stroke="#314865"/><path d="M943.9702575283317,-22.220925657453606L1005.44713636247,30.225473003715404L1025.6161732761607,-58.12080112396646Z" fill="#314563" stroke="#314563"/><path d="M1025.6161732761607,-58.12080112396646L1005.44713636247,30.225473003715404L1152.3705648332996,-26.25153538705544Z" fill="#334764" stroke="#334764"/><path d="M1025.6161732761607,-58.12080112396646L1152.3705648332996,-26.25153538705544L1269.1595527552317,-26.46563461792988Z" fill="#344664" stroke="#344664"/><path d="M1025.6161732761607,-58.12080112396646L1269.1595527552317,-26.46563461792988L1481.960920039465,-38.52623663076895Z" fill="#374966" stroke="#374966"/><path d="M1152.3705648332996,-26.25153538705544L1005.44713636247,30.225473003715404L1149.9770781397597,59.32294575853241Z" fill="#364c69" stroke="#364c69"/><path d="M1152.3705648332996,-26.25153538705544L1149.9770781397597,59.32294575853241L1221.0321120986769,36.56263108033691Z" fill="#394e6b" stroke="#394e6b"/><path d="M1152.3705648332996,-26.25153538705544L1221.0321120986769,36.56263108033691L1245.3680715861144,-21.055632710386767Z" fill="#384c69" stroke="#384c69"/><path d="M1152.3705648332996,-26.25153538705544L1245.3680715861144,-21.055632710386767L1269.1595527552317,-26.46563461792988Z" fill="#374a67" stroke="#374a67"/><path d="M1245.3680715861144,-21.055632710386767L1221.0321120986769,36.56263108033691L1269.1595527552317,-26.46563461792988Z" fill="#394d6a" stroke="#394d6a"/><path d="M1269.1595527552317,-26.46563461792988L1221.0321120986769,36.56263108033691L1292.560821333718,68.08860016761051Z" fill="#3b516d" stroke="#3b516d"/><path d="M1269.1595527552317,-26.46563461792988L1292.560821333718,68.08860016761051L1362.3688441476581,-10.200967077679408Z" fill="#3b506c" stroke="#3b506c"/><path d="M1269.1595527552317,-26.46563461792988L1362.3688441476581,-10.200967077679408L1481.960920039465,-38.52623663076895Z" fill="#3b4e6a" stroke="#3b4e6a"/><path d="M1362.3688441476581,-10.200967077679408L1292.560821333718,68.08860016761051L1389.3391134532765,48.90925486994948Z" fill="#3e5470" stroke="#3e5470"/><path d="M1362.3688441476581,-10.200967077679408L1389.3391134532765,48.90925486994948L1481.960920039465,-38.52623663076895Z" fill="#3e526e" stroke="#3e526e"/><path d="M1481.960920039465,-38.52623663076895L1389.3391134532765,48.90925486994948L1516.8930624211498,43.73154285535291Z" fill="#405571" stroke="#405571"/><path d="M-60.80055729655376,24.286015610937227L-66.94463161991872,332.2308959836142L-28.840288555174283,236.8090955776233Z" fill="#1f4462" stroke="#1f4462"/><path d="M-60.80055729655376,24.286015610937227L-28.840288555174283,236.8090955776233L-17.366935092497165,155.62796671522173Z" fill="#1c3d5c" stroke="#1c3d5c"/><path d="M-60.80055729655376,24.286015610937227L-17.366935092497165,155.62796671522173L17.056902846952802,141.84163544751016Z" fill="#1b3a59" stroke="#1b3a59"/><path d="M-60.80055729655376,24.286015610937227L17.056902846952802,141.84163544751016L64.50539909077725,78.78330267982739Z" fill="#1a3857" stroke="#1a3857"/><path d="M64.50539909077725,78.78330267982739L17.056902846952802,141.84163544751016L167.0829059407913,160.8455660298465Z" fill="#1f3f5e" stroke="#1f3f5e"/><path d="M64.50539909077725,78.78330267982739L167.0829059407913,160.8455660298465L147.26284151446265,16.838455718513515Z" fill="#1d3b5a" stroke="#1d3b5a"/><path d="M147.26284151446265,16.838455718513515L167.0829059407913,160.8455660298465L228.57559185955813,150.29041854104943Z" fill="#213f5e" stroke="#213f5e"/><path d="M147.26284151446265,16.838455718513515L228.57559185955813,150.29041854104943L260.0008303444145,9.877017059392609Z" fill="#1e3b5a" stroke="#1e3b5a"/><path d="M260.0008303444145,9.877017059392609L228.57559185955813,150.29041854104943L290.8049647049348,138.57609335964918Z" fill="#22405f" stroke="#22405f"/><path d="M260.0008303444145,9.877017059392609L290.8049647049348,138.57609335964918L321.30067986775737,34.348470010435726Z" fill="#213d5c" stroke="#213d5c"/><path d="M321.30067986775737,34.348470010435726L290.8049647049348,138.57609335964918L382.91521950793657,112.03103465016083Z" fill="#244260" stroke="#244260"/><path d="M321.30067986775737,34.348470010435726L382.91521950793657,112.03103465016083L406.56674727989736,50.79778827976528Z" fill="#243f5e" stroke="#243f5e"/><path d="M406.56674727989736,50.79778827976528L382.91521950793657,112.03103465016083L461.10342774925317,101.37125412866577Z" fill="#264361" stroke="#264361"/><path d="M406.56674727989736,50.79778827976528L461.10342774925317,101.37125412866577L459.19700777385685,67.56408347451881Z" fill="#264260" stroke="#264260"/><path d="M459.19700777385685,67.56408347451881L461.10342774925317,101.37125412866577L579.649172318507,112.39463676872835Z" fill="#294664" stroke="#294664"/><path d="M611.9358077410853,18.840258200124197L579.649172318507,112.39463676872835L659.2126441674017,63.89604362290617Z" fill="#2b4563" stroke="#2b4563"/><path d="M659.2126441674017,63.89604362290617L579.649172318507,112.39463676872835L665.6016865231061,142.52870683183446Z" fill="#2e4a67" stroke="#2e4a67"/><path d="M659.2126441674017,63.89604362290617L665.6016865231061,142.52870683183446L767.9369721510254,62.66355200176905Z" fill="#2f4a67" stroke="#2f4a67"/><path d="M767.9369721510254,62.66355200176905L665.6016865231061,142.52870683183446L788.0456349949443,117.27622071758778Z" fill="#314d6a" stroke="#314d6a"/><path d="M767.9369721510254,62.66355200176905L788.0456349949443,117.27622071758778L872.9424208670246,57.27173423684229Z" fill="#314b69" stroke="#314b69"/><path d="M872.9424208670246,57.27173423684229L788.0456349949443,117.27622071758778L883.8345663100672,124.95148353312733Z" fill="#334f6c" stroke="#334f6c"/><path d="M872.9424208670246,57.27173423684229L883.8345663100672,124.95148353312733L932.9882204913742,29.17946197116497Z" fill="#334d6a" stroke="#334d6a"/><path d="M932.9882204913742,29.17946197116497L883.8345663100672,124.95148353312733L979.6138880863518,150.6221385886335Z" fill="#36516d" stroke="#36516d"/><path d="M932.9882204913742,29.17946197116497L979.6138880863518,150.6221385886335L1005.44713636247,30.225473003715404Z" fill="#354f6b" stroke="#354f6b"/><path d="M1005.44713636247,30.225473003715404L979.6138880863518,150.6221385886335L1050.8517776539052,131.75288328805283Z" fill="#385470" stroke="#385470"/><path d="M1005.44713636247,30.225473003715404L1050.8517776539052,131.75288328805283L1102.6982773598822,110.74457724792043Z" fill="#39536f" stroke="#39536f"/><path d="M1005.44713636247,30.225473003715404L1102.6982773598822,110.74457724792043L1149.9770781397597,59.32294575853241Z" fill="#38516d" stroke="#38516d"/><path d="M1149.9770781397597,59.32294575853241L1102.6982773598822,110.74457724792043L1249.4934473127685,125.87859721743494Z" fill="#3d5772" stroke="#3d5772"/><path d="M1149.9770781397597,59.32294575853241L1249.4934473127685,125.87859721743494L1221.0321120986769,36.56263108033691Z" fill="#3c5571" stroke="#3c5571"/><path d="M1221.0321120986769,36.56263108033691L1249.4934473127685,125.87859721743494L1292.560821333718,68.08860016761051Z" fill="#3e5772" stroke="#3e5772"/><path d="M1292.560821333718,68.08860016761051L1249.4934473127685,125.87859721743494L1340.7207013809693,159.7181007378254Z" fill="#415c77" stroke="#415c77"/><path d="M1292.560821333718,68.08860016761051L1340.7207013809693,159.7181007378254L1393.9705581456194,123.48128117145383Z" fill="#435d78" stroke="#435d78"/><path d="M1292.560821333718,68.08860016761051L1393.9705581456194,123.48128117145383L1389.3391134532765,48.90925486994948Z" fill="#415974" stroke="#415974"/><path d="M1389.3391134532765,48.90925486994948L1393.9705581456194,123.48128117145383L1459.4205241235495,120.28469088297888Z" fill="#435d77" stroke="#435d77"/><path d="M1389.3391134532765,48.90925486994948L1459.4205241235495,120.28469088297888L1516.8930624211498,43.73154285535291Z" fill="#435b76" stroke="#435b76"/><path d="M1516.8930624211498,43.73154285535291L1459.4205241235495,120.28469088297888L1468.4893996406204,220.38211812166824Z" fill="#47627c" stroke="#47627c"/><path d="M1516.8930624211498,43.73154285535291L1468.4893996406204,220.38211812166824L1499.0695400323673,288.85586868458404Z" fill="#4b6981" stroke="#4b6981"/><path d="M-17.366935092497165,155.62796671522173L-28.840288555174283,236.8090955776233L37.93231025730463,260.47246049032793Z" fill="#224765" stroke="#224765"/><path d="M-17.366935092497165,155.62796671522173L37.93231025730463,260.47246049032793L17.056902846952802,141.84163544751016Z" fill="#204462" stroke="#204462"/><path d="M17.056902846952802,141.84163544751016L37.93231025730463,260.47246049032793L170.15936048283123,193.88919987706225Z" fill="#224764" stroke="#224764"/><path d="M17.056902846952802,141.84163544751016L170.15936048283123,193.88919987706225L167.0829059407913,160.8455660298465Z" fill="#224462" stroke="#224462"/><path d="M167.0829059407913,160.8455660298465L170.15936048283123,193.88919987706225L228.57559185955813,150.29041854104943Z" fill="#244664" stroke="#244664"/><path d="M228.57559185955813,150.29041854104943L170.15936048283123,193.88919987706225L214.58443490908502,234.36374974935637Z" fill="#264967" stroke="#264967"/><path d="M228.57559185955813,150.29041854104943L214.58443490908502,234.36374974935637L318.4750396875742,213.63285380112737Z" fill="#284c68" stroke="#284c68"/><path d="M228.57559185955813,150.29041854104943L318.4750396875742,213.63285380112737L290.8049647049348,138.57609335964918Z" fill="#274966" stroke="#274966"/><path d="M290.8049647049348,138.57609335964918L318.4750396875742,213.63285380112737L382.91521950793657,112.03103465016083Z" fill="#274966" stroke="#274966"/><path d="M382.91521950793657,112.03103465016083L318.4750396875742,213.63285380112737L415.6365379658042,245.03655803670873Z" fill="#2b4e6a" stroke="#2b4e6a"/><path d="M382.91521950793657,112.03103465016083L415.6365379658042,245.03655803670873L464.52937124454064,194.72186639610248Z" fill="#2c4e6a" stroke="#2c4e6a"/><path d="M382.91521950793657,112.03103465016083L464.52937124454064,194.72186639610248L461.10342774925317,101.37125412866577Z" fill="#294966" stroke="#294966"/><path d="M461.10342774925317,101.37125412866577L464.52937124454064,194.72186639610248L551.1487283815443,208.21820648445814Z" fill="#2d4e6a" stroke="#2d4e6a"/><path d="M461.10342774925317,101.37125412866577L551.1487283815443,208.21820648445814L579.649172318507,112.39463676872835Z" fill="#2d4c69" stroke="#2d4c69"/><path d="M579.649172318507,112.39463676872835L551.1487283815443,208.21820648445814L665.6016865231061,142.52870683183446Z" fill="#2f4f6c" stroke="#2f4f6c"/><path d="M665.6016865231061,142.52870683183446L551.1487283815443,208.21820648445814L678.0526638688076,196.5362962127671Z" fill="#32536f" stroke="#32536f"/><path d="M665.6016865231061,142.52870683183446L678.0526638688076,196.5362962127671L788.0456349949443,117.27622071758778Z" fill="#32526e" stroke="#32526e"/><path d="M788.0456349949443,117.27622071758778L678.0526638688076,196.5362962127671L799.9449556382187,232.35998572353745Z" fill="#355672" stroke="#355672"/><path d="M788.0456349949443,117.27622071758778L799.9449556382187,232.35998572353745L823.3515250266125,202.1800123156248Z" fill="#375773" stroke="#375773"/><path d="M788.0456349949443,117.27622071758778L823.3515250266125,202.1800123156248L883.8345663100672,124.95148353312733Z" fill="#365470" stroke="#365470"/><path d="M883.8345663100672,124.95148353312733L823.3515250266125,202.1800123156248L969.0302234719513,204.20772002523836Z" fill="#395974" stroke="#395974"/><path d="M883.8345663100672,124.95148353312733L969.0302234719513,204.20772002523836L979.6138880863518,150.6221385886335Z" fill="#3a5874" stroke="#3a5874"/><path d="M979.6138880863518,150.6221385886335L969.0302234719513,204.20772002523836L1035.643450180169,227.53611007472458Z" fill="#3d5e78" stroke="#3d5e78"/><path d="M979.6138880863518,150.6221385886335L1035.643450180169,227.53611007472458L1050.8517776539052,131.75288328805283Z" fill="#3d5b76" stroke="#3d5b76"/><path d="M1050.8517776539052,131.75288328805283L1035.643450180169,227.53611007472458L1146.0628059473624,251.31802899430664Z" fill="#40617a" stroke="#40617a"/><path d="M1050.8517776539052,131.75288328805283L1146.0628059473624,251.31802899430664L1102.6982773598822,110.74457724792043Z" fill="#3e5d77" stroke="#3e5d77"/><path d="M1102.6982773598822,110.74457724792043L1146.0628059473624,251.31802899430664L1202.2362923226926,219.2739935291907Z" fill="#42627b" stroke="#42627b"/><path d="M1102.6982773598822,110.74457724792043L1202.2362923226926,219.2739935291907L1249.4934473127685,125.87859721743494Z" fill="#405d78" stroke="#405d78"/><path d="M1249.4934473127685,125.87859721743494L1202.2362923226926,219.2739935291907L1314.66963907414,242.69930476149202Z" fill="#45647e" stroke="#45647e"/><path d="M1249.4934473127685,125.87859721743494L1314.66963907414,242.69930476149202L1340.7207013809693,159.7181007378254Z" fill="#45637d" stroke="#45637d"/><path d="M1340.7207013809693,159.7181007378254L1314.66963907414,242.69930476149202L1361.5841481825182,256.17698777196676Z" fill="#496982" stroke="#496982"/><path d="M1340.7207013809693,159.7181007378254L1361.5841481825182,256.17698777196676L1468.4893996406204,220.38211812166824Z" fill="#4a6a82" stroke="#4a6a82"/><path d="M1340.7207013809693,159.7181007378254L1468.4893996406204,220.38211812166824L1393.9705581456194,123.48128117145383Z" fill="#48657e" stroke="#48657e"/><path d="M1393.9705581456194,123.48128117145383L1468.4893996406204,220.38211812166824L1459.4205241235495,120.28469088297888Z" fill="#48647e" stroke="#48647e"/><path d="M-28.840288555174283,236.8090955776233L-66.94463161991872,332.2308959836142L43.989875284613696,302.8248875237539Z" fill="#254f6c" stroke="#254f6c"/><path d="M-28.840288555174283,236.8090955776233L43.989875284613696,302.8248875237539L37.93231025730463,260.47246049032793Z" fill="#254d6a" stroke="#254d6a"/><path d="M37.93231025730463,260.47246049032793L43.989875284613696,302.8248875237539L148.54496324297745,280.56557646928974Z" fill="#27516d" stroke="#27516d"/><path d="M37.93231025730463,260.47246049032793L148.54496324297745,280.56557646928974L170.15936048283123,193.88919987706225Z" fill="#274d6a" stroke="#274d6a"/><path d="M170.15936048283123,193.88919987706225L148.54496324297745,280.56557646928974L214.58443490908502,234.36374974935637Z" fill="#284e6b" stroke="#284e6b"/><path d="M214.58443490908502,234.36374974935637L148.54496324297745,280.56557646928974L200.8509060012511,311.69736693619086Z" fill="#2a526f" stroke="#2a526f"/><path d="M214.58443490908502,234.36374974935637L200.8509060012511,311.69736693619086L291.16698467054897,281.95194340280983Z" fill="#2c5470" stroke="#2c5470"/><path d="M214.58443490908502,234.36374974935637L291.16698467054897,281.95194340280983L318.4750396875742,213.63285380112737Z" fill="#2b516d" stroke="#2b516d"/><path d="M318.4750396875742,213.63285380112737L291.16698467054897,281.95194340280983L415.6365379658042,245.03655803670873Z" fill="#2d536f" stroke="#2d536f"/><path d="M415.6365379658042,245.03655803670873L291.16698467054897,281.95194340280983L413.21794281958233,312.78470937211864Z" fill="#305873" stroke="#305873"/><path d="M415.6365379658042,245.03655803670873L413.21794281958233,312.78470937211864L526.7116162968193,324.05766242842594Z" fill="#335c76" stroke="#335c76"/><path d="M415.6365379658042,245.03655803670873L526.7116162968193,324.05766242842594L464.52937124454064,194.72186639610248Z" fill="#315772" stroke="#315772"/><path d="M464.52937124454064,194.72186639610248L526.7116162968193,324.05766242842594L551.1487283815443,208.21820648445814Z" fill="#325772" stroke="#325772"/><path d="M551.1487283815443,208.21820648445814L526.7116162968193,324.05766242842594L581.6564581847585,285.7898151145904Z" fill="#355c76" stroke="#355c76"/><path d="M551.1487283815443,208.21820648445814L581.6564581847585,285.7898151145904L678.0526638688076,196.5362962127671Z" fill="#345873" stroke="#345873"/><path d="M678.0526638688076,196.5362962127671L581.6564581847585,285.7898151145904L699.3363538412156,309.40819618346853Z" fill="#375d77" stroke="#375d77"/><path d="M678.0526638688076,196.5362962127671L699.3363538412156,309.40819618346853L799.9449556382187,232.35998572353745Z" fill="#385d77" stroke="#385d77"/><path d="M799.9449556382187,232.35998572353745L699.3363538412156,309.40819618346853L780.0095735117789,339.8641548544073Z" fill="#3c637d" stroke="#3c637d"/><path d="M799.9449556382187,232.35998572353745L780.0095735117789,339.8641548544073L820.7848956824323,341.27028476493956Z" fill="#3e657e" stroke="#3e657e"/><path d="M799.9449556382187,232.35998572353745L820.7848956824323,341.27028476493956L937.3490931973346,340.5944742861146Z" fill="#406780" stroke="#406780"/><path d="M799.9449556382187,232.35998572353745L937.3490931973346,340.5944742861146L823.3515250266125,202.1800123156248Z" fill="#3d617b" stroke="#3d617b"/><path d="M823.3515250266125,202.1800123156248L937.3490931973346,340.5944742861146L969.0302234719513,204.20772002523836Z" fill="#3e617b" stroke="#3e617b"/><path d="M969.0302234719513,204.20772002523836L937.3490931973346,340.5944742861146L1036.0313349941162,308.15818902560534Z" fill="#426780" stroke="#426780"/><path d="M969.0302234719513,204.20772002523836L1036.0313349941162,308.15818902560534L1035.643450180169,227.53611007472458Z" fill="#41647e" stroke="#41647e"/><path d="M1035.643450180169,227.53611007472458L1036.0313349941162,308.15818902560534L1146.0628059473624,251.31802899430664Z" fill="#446780" stroke="#446780"/><path d="M1146.0628059473624,251.31802899430664L1036.0313349941162,308.15818902560534L1147.7260969696636,329.3908454427203Z" fill="#476c85" stroke="#476c85"/><path d="M1146.0628059473624,251.31802899430664L1147.7260969696636,329.3908454427203L1206.0490180334552,309.28328751772756Z" fill="#486d86" stroke="#486d86"/><path d="M1146.0628059473624,251.31802899430664L1206.0490180334552,309.28328751772756L1202.2362923226926,219.2739935291907Z" fill="#476a82" stroke="#476a82"/><path d="M1202.2362923226926,219.2739935291907L1206.0490180334552,309.28328751772756L1278.0169787706511,317.952316108179Z" fill="#496d86" stroke="#496d86"/><path d="M1202.2362923226926,219.2739935291907L1278.0169787706511,317.952316108179L1314.66963907414,242.69930476149202Z" fill="#496c84" stroke="#496c84"/><path d="M1314.66963907414,242.69930476149202L1278.0169787706511,317.952316108179L1361.5841481825182,256.17698777196676Z" fill="#4b6f87" stroke="#4b6f87"/><path d="M1361.5841481825182,256.17698777196676L1278.0169787706511,317.952316108179L1428.740132606626,314.1099358062884Z" fill="#4e728a" stroke="#4e728a"/><path d="M1361.5841481825182,256.17698777196676L1428.740132606626,314.1099358062884L1468.4893996406204,220.38211812166824Z" fill="#4e7088" stroke="#4e7088"/><path d="M1468.4893996406204,220.38211812166824L1428.740132606626,314.1099358062884L1499.0695400323673,288.85586868458404Z" fill="#4f728a" stroke="#4f728a"/><path d="M-66.94463161991872,332.2308959836142L-54.115426765841306,391.99392280073266L43.989875284613696,302.8248875237539Z" fill="#285571" stroke="#285571"/><path d="M43.989875284613696,302.8248875237539L-54.115426765841306,391.99392280073266L27.046943435154013,423.66191620094787Z" fill="#2b5974" stroke="#2b5974"/><path d="M43.989875284613696,302.8248875237539L27.046943435154013,423.66191620094787L159.8094321954351,397.04141357860647Z" fill="#2d5b76" stroke="#2d5b76"/><path d="M43.989875284613696,302.8248875237539L159.8094321954351,397.04141357860647L148.54496324297745,280.56557646928974Z" fill="#2b5772" stroke="#2b5772"/><path d="M148.54496324297745,280.56557646928974L159.8094321954351,397.04141357860647L200.8509060012511,311.69736693619086Z" fill="#2d5873" stroke="#2d5873"/><path d="M200.8509060012511,311.69736693619086L159.8094321954351,397.04141357860647L209.4775968105347,407.8186508911285Z" fill="#305e78" stroke="#305e78"/><path d="M200.8509060012511,311.69736693619086L209.4775968105347,407.8186508911285L313.4515470580742,413.008895285403Z" fill="#32607a" stroke="#32607a"/><path d="M200.8509060012511,311.69736693619086L313.4515470580742,413.008895285403L291.16698467054897,281.95194340280983Z" fill="#305b76" stroke="#305b76"/><path d="M291.16698467054897,281.95194340280983L313.4515470580742,413.008895285403L394.650310184203,386.63414648818537Z" fill="#33607a" stroke="#33607a"/><path d="M291.16698467054897,281.95194340280983L394.650310184203,386.63414648818537L413.21794281958233,312.78470937211864Z" fill="#335d78" stroke="#335d78"/><path d="M413.21794281958233,312.78470937211864L394.650310184203,386.63414648818537L521.549867254326,380.4949846579103Z" fill="#37637c" stroke="#37637c"/><path d="M413.21794281958233,312.78470937211864L521.549867254326,380.4949846579103L526.7116162968193,324.05766242842594Z" fill="#37617b" stroke="#37617b"/><path d="M526.7116162968193,324.05766242842594L521.549867254326,380.4949846579103L619.4810976281217,380.6162994629543Z" fill="#3a667f" stroke="#3a667f"/><path d="M526.7116162968193,324.05766242842594L619.4810976281217,380.6162994629543L581.6564581847585,285.7898151145904Z" fill="#39637c" stroke="#39637c"/><path d="M581.6564581847585,285.7898151145904L619.4810976281217,380.6162994629543L699.3363538412156,309.40819618346853Z" fill="#3a647d" stroke="#3a647d"/><path d="M699.3363538412156,309.40819618346853L619.4810976281217,380.6162994629543L704.5355263411205,375.06520702247985Z" fill="#3d6881" stroke="#3d6881"/><path d="M699.3363538412156,309.40819618346853L704.5355263411205,375.06520702247985L780.0095735117789,339.8641548544073Z" fill="#3e6881" stroke="#3e6881"/><path d="M780.0095735117789,339.8641548544073L704.5355263411205,375.06520702247985L780.0895353067449,369.4049202631657Z" fill="#406b84" stroke="#406b84"/><path d="M780.0095735117789,339.8641548544073L780.0895353067449,369.4049202631657L820.7848956824323,341.27028476493956Z" fill="#406b83" stroke="#406b83"/><path d="M820.7848956824323,341.27028476493956L780.0895353067449,369.4049202631657L867.7594880086128,432.48703167695203Z" fill="#436f86" stroke="#436f86"/><path d="M820.7848956824323,341.27028476493956L867.7594880086128,432.48703167695203L937.3490931973346,340.5944742861146Z" fill="#446f87" stroke="#446f87"/><path d="M937.3490931973346,340.5944742861146L867.7594880086128,432.48703167695203L951.8964943569446,428.5061903004238Z" fill="#47738b" stroke="#47738b"/><path d="M937.3490931973346,340.5944742861146L951.8964943569446,428.5061903004238L1057.7782082381914,381.83513130686794Z" fill="#48738a" stroke="#48738a"/><path d="M937.3490931973346,340.5944742861146L1057.7782082381914,381.83513130686794L1036.0313349941162,308.15818902560534Z" fill="#466f87" stroke="#466f87"/><path d="M1036.0313349941162,308.15818902560534L1057.7782082381914,381.83513130686794L1147.7260969696636,329.3908454427203Z" fill="#487088" stroke="#487088"/><path d="M1147.7260969696636,329.3908454427203L1057.7782082381914,381.83513130686794L1090.8656157102928,402.7391970332032Z" fill="#4b748c" stroke="#4b748c"/><path d="M1147.7260969696636,329.3908454427203L1090.8656157102928,402.7391970332032L1200.97573111644,420.008006992918Z" fill="#4d778e" stroke="#4d778e"/><path d="M1147.7260969696636,329.3908454427203L1200.97573111644,420.008006992918L1206.0490180334552,309.28328751772756Z" fill="#4c748c" stroke="#4c748c"/><path d="M1206.0490180334552,309.28328751772756L1200.97573111644,420.008006992918L1278.0169787706511,317.952316108179Z" fill="#4d758c" stroke="#4d758c"/><path d="M1278.0169787706511,317.952316108179L1200.97573111644,420.008006992918L1311.7166498363347,431.8257292984071Z" fill="#517b91" stroke="#517b91"/><path d="M1278.0169787706511,317.952316108179L1311.7166498363347,431.8257292984071L1362.8310636807846,426.87650975923987Z" fill="#527c93" stroke="#527c93"/><path d="M1278.0169787706511,317.952316108179L1362.8310636807846,426.87650975923987L1428.740132606626,314.1099358062884Z" fill="#51798f" stroke="#51798f"/><path d="M1428.740132606626,314.1099358062884L1362.8310636807846,426.87650975923987L1464.6516205947407,396.70986783566883Z" fill="#557d93" stroke="#557d93"/><path d="M1428.740132606626,314.1099358062884L1464.6516205947407,396.70986783566883L1499.0695400323673,288.85586868458404Z" fill="#537990" stroke="#537990"/><path d="M1499.0695400323673,288.85586868458404L1464.6516205947407,396.70986783566883L1458.7388472759699,510.21953407697566Z" fill="#578196" stroke="#578196"/><path d="M-54.115426765841306,391.99392280073266L-21.28706211986743,482.8096122385805L27.046943435154013,423.66191620094787Z" fill="#2e607a" stroke="#2e607a"/><path d="M27.046943435154013,423.66191620094787L-21.28706211986743,482.8096122385805L33.473023026609155,485.88590835713273Z" fill="#31647e" stroke="#31647e"/><path d="M27.046943435154013,423.66191620094787L33.473023026609155,485.88590835713273L134.65390888358664,460.6840508342806Z" fill="#32647e" stroke="#32647e"/><path d="M27.046943435154013,423.66191620094787L134.65390888358664,460.6840508342806L159.8094321954351,397.04141357860647Z" fill="#31627c" stroke="#31627c"/><path d="M159.8094321954351,397.04141357860647L134.65390888358664,460.6840508342806L209.4775968105347,407.8186508911285Z" fill="#33637d" stroke="#33637d"/><path d="M209.4775968105347,407.8186508911285L134.65390888358664,460.6840508342806L239.84324008209953,498.82819665170587Z" fill="#356880" stroke="#356880"/><path d="M209.4775968105347,407.8186508911285L239.84324008209953,498.82819665170587L313.4515470580742,413.008895285403Z" fill="#366780" stroke="#366780"/><path d="M313.4515470580742,413.008895285403L239.84324008209953,498.82819665170587L310.4101038522325,488.9927919406461Z" fill="#396b83" stroke="#396b83"/><path d="M313.4515470580742,413.008895285403L310.4101038522325,488.9927919406461L394.650310184203,386.63414648818537Z" fill="#386881" stroke="#386881"/><path d="M394.650310184203,386.63414648818537L310.4101038522325,488.9927919406461L425.93876389879176,525.6659428954894Z" fill="#3b6d85" stroke="#3b6d85"/><path d="M394.650310184203,386.63414648818537L425.93876389879176,525.6659428954894L482.762032550691,476.01942320798577Z" fill="#3c6e87" stroke="#3c6e87"/><path d="M394.650310184203,386.63414648818537L482.762032550691,476.01942320798577L521.549867254326,380.4949846579103Z" fill="#3b6982" stroke="#3b6982"/><path d="M521.549867254326,380.4949846579103L482.762032550691,476.01942320798577L589.2702733514898,503.56771527495283Z" fill="#3f7088" stroke="#3f7088"/><path d="M521.549867254326,380.4949846579103L589.2702733514898,503.56771527495283L619.4810976281217,380.6162994629543Z" fill="#3f6d85" stroke="#3f6d85"/><path d="M619.4810976281217,380.6162994629543L589.2702733514898,503.56771527495283L679.6496072423537,461.3402254434902Z" fill="#427189" stroke="#427189"/><path d="M619.4810976281217,380.6162994629543L679.6496072423537,461.3402254434902L704.5355263411205,375.06520702247985Z" fill="#406d86" stroke="#406d86"/><path d="M704.5355263411205,375.06520702247985L679.6496072423537,461.3402254434902L735.8368907170376,480.0586225498559Z" fill="#43728a" stroke="#43728a"/><path d="M704.5355263411205,375.06520702247985L735.8368907170376,480.0586225498559L780.0895353067449,369.4049202631657Z" fill="#427088" stroke="#427088"/><path d="M780.0895353067449,369.4049202631657L735.8368907170376,480.0586225498559L867.7594880086128,432.48703167695203Z" fill="#45738b" stroke="#45738b"/><path d="M867.7594880086128,432.48703167695203L735.8368907170376,480.0586225498559L861.5911597749646,488.95719092878005Z" fill="#48788f" stroke="#48788f"/><path d="M867.7594880086128,432.48703167695203L861.5911597749646,488.95719092878005L910.9283150023016,475.9347065236405Z" fill="#4a7a90" stroke="#4a7a90"/><path d="M867.7594880086128,432.48703167695203L910.9283150023016,475.9347065236405L951.8964943569446,428.5061903004238Z" fill="#49798f" stroke="#49798f"/><path d="M951.8964943569446,428.5061903004238L910.9283150023016,475.9347065236405L1049.3237645925049,505.0645852895891Z" fill="#4d7d93" stroke="#4d7d93"/><path d="M951.8964943569446,428.5061903004238L1049.3237645925049,505.0645852895891L1057.7782082381914,381.83513130686794Z" fill="#4c7a91" stroke="#4c7a91"/><path d="M1057.7782082381914,381.83513130686794L1049.3237645925049,505.0645852895891L1090.8656157102928,402.7391970332032Z" fill="#4d7a91" stroke="#4d7a91"/><path d="M1090.8656157102928,402.7391970332032L1049.3237645925049,505.0645852895891L1093.5076218031447,509.6711256768479Z" fill="#508095" stroke="#508095"/><path d="M1090.8656157102928,402.7391970332032L1093.5076218031447,509.6711256768479L1200.97573111644,420.008006992918Z" fill="#507d94" stroke="#507d94"/><path d="M1200.97573111644,420.008006992918L1093.5076218031447,509.6711256768479L1231.2309875876972,515.6831339775584Z" fill="#548398" stroke="#548398"/><path d="M1200.97573111644,420.008006992918L1231.2309875876972,515.6831339775584L1285.946902932433,479.0586636343781Z" fill="#558398" stroke="#558398"/><path d="M1200.97573111644,420.008006992918L1285.946902932433,479.0586636343781L1311.7166498363347,431.8257292984071Z" fill="#548197" stroke="#548197"/><path d="M1311.7166498363347,431.8257292984071L1285.946902932433,479.0586636343781L1362.8310636807846,426.87650975923987Z" fill="#558398" stroke="#558398"/><path d="M1362.8310636807846,426.87650975923987L1285.946902932433,479.0586636343781L1393.2983551994182,506.5863154683129Z" fill="#58869b" stroke="#58869b"/><path d="M1362.8310636807846,426.87650975923987L1393.2983551994182,506.5863154683129L1464.6516205947407,396.70986783566883Z" fill="#58849a" stroke="#58849a"/><path d="M1464.6516205947407,396.70986783566883L1393.2983551994182,506.5863154683129L1458.7388472759699,510.21953407697566Z" fill="#5a889d" stroke="#5a889d"/><path d="M-21.28706211986743,482.8096122385805L425.93876389879176,525.6659428954894L33.473023026609155,485.88590835713273Z" fill="#376b84" stroke="#376b84"/><path d="M33.473023026609155,485.88590835713273L425.93876389879176,525.6659428954894L239.84324008209953,498.82819665170587Z" fill="#396e86" stroke="#396e86"/><path d="M33.473023026609155,485.88590835713273L239.84324008209953,498.82819665170587L134.65390888358664,460.6840508342806Z" fill="#356982" stroke="#356982"/><path d="M239.84324008209953,498.82819665170587L425.93876389879176,525.6659428954894L310.4101038522325,488.9927919406461Z" fill="#3c7088" stroke="#3c7088"/><path d="M425.93876389879176,525.6659428954894L1231.2309875876972,515.6831339775584L1093.5076218031447,509.6711256768479Z" fill="#4e8196" stroke="#4e8196"/><path d="M425.93876389879176,525.6659428954894L1093.5076218031447,509.6711256768479L1049.3237645925049,505.0645852895891Z" fill="#4c7f95" stroke="#4c7f95"/><path d="M425.93876389879176,525.6659428954894L1049.3237645925049,505.0645852895891L589.2702733514898,503.56771527495283Z" fill="#477a91" stroke="#477a91"/><path d="M425.93876389879176,525.6659428954894L589.2702733514898,503.56771527495283L482.762032550691,476.01942320798577Z" fill="#41748b" stroke="#41748b"/><path d="M589.2702733514898,503.56771527495283L1049.3237645925049,505.0645852895891L861.5911597749646,488.95719092878005Z" fill="#4b7d93" stroke="#4b7d93"/><path d="M589.2702733514898,503.56771527495283L861.5911597749646,488.95719092878005L735.8368907170376,480.0586225498559Z" fill="#47798f" stroke="#47798f"/><path d="M589.2702733514898,503.56771527495283L735.8368907170376,480.0586225498559L679.6496072423537,461.3402254434902Z" fill="#45768d" stroke="#45768d"/><path d="M861.5911597749646,488.95719092878005L1049.3237645925049,505.0645852895891L910.9283150023016,475.9347065236405Z" fill="#4d7e94" stroke="#4d7e94"/><path d="M1231.2309875876972,515.6831339775584L1458.7388472759699,510.21953407697566L1393.2983551994182,506.5863154683129Z" fill="#5a8b9f" stroke="#5a8b9f"/><path d="M1231.2309875876972,515.6831339775584L1393.2983551994182,506.5863154683129L1285.946902932433,479.0586636343781Z" fill="#58889d" stroke="#58889d"/></g></svg>